<?xml version="1.0" encoding="iso-8859-1"?>
<!-- Generator: Adobe Illustrator 19.0.0, SVG Export Plug-In . SVG Version: 6.00 Build 0)  -->
<svg version="1.1" id="Layer_1" xmlns="http://www.w3.org/2000/svg" xmlns:xlink="http://www.w3.org/1999/xlink" x="0px" y="0px"
	 viewBox="0 0 512 512" style="enable-background:new 0 0 512 512;" xml:space="preserve">
<g>
	<g>
		<path d="M473.6,51.2h-26.018C444.706,21.888,427.187,0,405.333,0h-332.8C48.606,0,29.867,26.24,29.867,59.733
			s18.739,59.733,42.667,59.733h332.8c21.854,0,39.373-21.888,42.249-51.2h17.485v96.521l-173.705,66.167
			c-3.311,1.263-5.495,4.437-5.495,7.979v34.133h-8.533c-3.917,0-7.322,2.671-8.277,6.46l-8.533,34.133
			c-0.171,0.683-0.256,1.374-0.256,2.074v127.394l-8.448,59.136c-0.35,2.449,0.384,4.932,1.997,6.801
			c1.63,1.86,3.977,2.935,6.451,2.935h68.267c2.475,0,4.821-1.075,6.451-2.944c1.613-1.869,2.347-4.352,1.997-6.801l-8.448-59.127
			V315.733c0-0.7-0.085-1.391-0.256-2.074l-8.533-34.133c-0.956-3.789-4.361-6.46-8.277-6.46h-8.533v-28.254l173.705-66.167
			c3.311-1.263,5.495-4.437,5.495-7.979V59.733C482.133,55.023,478.319,51.2,473.6,51.2z"/>
	</g>
</g>
<g>
</g>
<g>
</g>
<g>
</g>
<g>
</g>
<g>
</g>
<g>
</g>
<g>
</g>
<g>
</g>
<g>
</g>
<g>
</g>
<g>
</g>
<g>
</g>
<g>
</g>
<g>
</g>
<g>
</g>
</svg>
